<svg preserveAspectRatio="none" width="100%" height="100%" overflow="visible" style="display: block;" viewBox="0 0 303 32" fill="none" xmlns="http://www.w3.org/2000/svg">
<g id="&#230;&#160;&#135;&#233;&#162;&#152;&#232;&#190;&#133;&#229;&#138;&#169;&#232;&#163;&#133;&#233;&#165;&#176;" opacity="0.15">
<g id="Union (Stroke)">
<path d="M9.07227 16C9.07227 14.2989 9.3071 12.838 9.77637 11.6191L9.96973 11.168C10.4388 10.1615 11.078 9.36865 11.8896 8.79395L11.8945 8.79102C12.8316 8.13595 13.9739 7.81061 15.3174 7.81055C16.0834 7.81055 16.7708 7.92022 17.3779 8.14062L17.3916 8.14551C17.9972 8.35776 18.5125 8.66609 18.9375 9.07129L19.0957 9.22363C19.4458 9.57767 19.7256 9.98818 19.9355 10.4541L19.9492 10.4805L19.9609 10.5078L19.9619 10.5107C20.2018 11.0421 20.3505 11.6313 20.4111 12.2764H28.3682C28.2112 10.4862 27.7827 8.8968 27.0791 7.50879C27.0063 7.36514 26.9291 7.2249 26.8516 7.08594L26.0303 7.54492C26.0194 7.52542 26.0078 7.50634 25.9971 7.4873C25.9274 7.36406 25.8581 7.24332 25.7861 7.12695C25.7094 7.00293 25.6266 6.87856 25.5391 6.75L26.3164 6.21973C26.3054 6.2036 26.2952 6.18695 26.2842 6.1709L25.5098 6.70605C25.4812 6.6646 25.451 6.62484 25.4229 6.58496C25.2684 6.36746 25.1085 6.15645 24.9395 5.95508L25.6582 5.35059C25.2984 4.92196 24.9088 4.52306 24.4863 4.15625L24.2549 3.96094C23.0878 2.9942 21.7306 2.25906 20.1826 1.75586C18.6332 1.25222 16.9352 1.00003 15.0889 1C13.3131 1.00001 11.6519 1.2638 10.1045 1.78906L10.4033 2.68164C10.3562 2.69767 10.3076 2.71386 10.2578 2.73145L9.94434 1.84375C9.40219 2.0351 8.87421 2.25927 8.36035 2.51562L7.95312 2.72559L7.9541 2.72656C5.82809 3.86577 4.13818 5.55041 2.88379 7.78223L2.88281 7.78418C1.62898 10.0062 1 12.7438 1 16C1 19.2371 1.61439 21.9703 2.83984 24.2021L3.07617 24.6152C4.28652 26.6452 5.88533 28.1982 7.87109 29.2754L8.27344 29.4844C10.3015 30.4946 12.5733 31 15.0889 31V32C12.2579 32 9.68553 31.3919 7.39551 30.1553L7.39453 30.1543C5.24214 28.9868 3.51595 27.3031 2.21875 25.1279L1.96484 24.6865L1.96387 24.6836C0.638421 22.2698 2.27116e-07 19.3614 0 16C7.19065e-09 12.8292 0.573585 10.0667 1.76465 7.75L2.01172 7.29199C3.35344 4.90483 5.17824 3.07932 7.48242 1.84473L7.91406 1.62012C10.0879 0.535688 12.4853 9.5115e-06 15.0889 0C17.0265 3.17859e-05 18.8299 0.264744 20.4912 0.804688C22.1505 1.34404 23.6221 2.13817 24.8936 3.19141L25.1299 3.39062C26.2993 4.40334 27.2466 5.62841 27.9707 7.05664C28.7493 8.59257 29.2107 10.3319 29.3721 12.2568L29.457 13.2764H19.4941L19.4209 12.416C19.3779 11.9143 19.2735 11.4689 19.1152 11.0742L19.041 10.9014L19.0381 10.8965C18.8512 10.4705 18.5936 10.1111 18.2637 9.81055L18.2559 9.80371L18.248 9.7959C17.9734 9.53387 17.6391 9.31808 17.2334 9.1543L17.0557 9.08691L17.043 9.08301C16.5628 8.90779 15.9916 8.81055 15.3174 8.81055C14.1402 8.81061 13.2067 9.09306 12.4668 9.61035C11.7227 10.1373 11.1301 10.9094 10.709 11.9785C10.295 13.0538 10.0723 14.3863 10.0723 16C10.0723 17.7128 10.3009 19.0874 10.7197 20.1553C11.1478 21.2125 11.7396 21.955 12.4707 22.4434C13.1159 22.8661 13.8976 23.1198 14.8447 23.1768L15.2607 23.1895C15.9175 23.1894 16.4778 23.1081 16.9521 22.9609C17.371 22.8227 17.7285 22.6388 18.0312 22.4141L18.1572 22.3154C18.4491 22.0755 18.6926 21.7936 18.8896 21.4658L18.9717 21.3223L18.9746 21.3174C19.1659 20.968 19.3079 20.5712 19.3945 20.1211L19.4277 19.9248L19.5508 19.1182L29.4502 19.1885L29.373 20.1953L29.3203 20.708C29.1676 21.9067 28.8035 23.11 28.2412 24.3145V24.3164C27.5879 25.7054 26.6643 26.9784 25.4854 28.1367L25.2568 28.3545C24.1031 29.428 22.712 30.2887 21.0986 30.9434L20.7666 31.0723C19.0894 31.6977 17.1912 32 15.0889 32V31C17.2305 31 19.1083 30.6716 20.7227 30.0166C22.339 29.3607 23.6926 28.4961 24.7842 27.4238C25.8872 26.3402 26.7379 25.1623 27.3359 23.8906L27.3369 23.8896L27.3408 23.8799L27.3428 23.876C27.9272 22.6201 28.2679 21.3882 28.3691 20.1807L20.4082 20.124C20.3117 20.7271 20.1313 21.2736 19.8682 21.7637L19.8662 21.7695L19.8594 21.7832L19.8516 21.7969C19.5806 22.2999 19.2269 22.7303 18.792 23.0879C18.3584 23.4442 17.8485 23.7177 17.2656 23.9102L17.2578 23.9131L17.249 23.916C16.6621 24.0981 15.9993 24.1894 15.2607 24.1895C14.1716 24.1894 13.2124 23.9748 12.3838 23.5469L11.9521 24.3828C11.9404 24.3767 11.9326 24.3726 11.9082 24.3604C11.8882 24.3502 11.8583 24.3359 11.8262 24.3184L11.8184 24.3135L11.8105 24.3096L11.6318 24.207C11.6255 24.2033 11.6187 24.1991 11.6123 24.1953L12.0869 23.3818L11.915 23.2744C10.9897 22.6562 10.2827 21.7399 9.79297 20.5303L9.78809 20.5205C9.30997 19.3015 9.07227 17.7938 9.07227 16ZM61.5176 16C61.5176 14.5787 61.3965 13.2563 61.1553 12.0322L60.2344 12.2227L60.1221 11.7012L60.0078 11.2393L60.0039 11.2217L60.9141 10.9873C60.6029 9.82123 60.1714 8.75372 59.6201 7.78418V7.78223C58.3559 5.54978 56.6494 3.86497 54.5029 2.72559L54.5 2.72363C52.3527 1.5751 49.9579 1.00004 47.3145 1C46.1489 1.00002 45.0325 1.10983 43.9658 1.33008L44.1562 2.25195C44.0131 2.28151 43.8712 2.31327 43.7314 2.34668L43.7305 2.3457C43.5948 2.37805 43.4606 2.414 43.3271 2.4502L43.2959 2.45801L43.0557 1.54785C42.0209 1.8306 41.0354 2.22338 40.0986 2.72461L40.0967 2.72559C37.9594 3.86513 36.2586 5.55075 34.9941 7.78418C33.7403 10.0062 33.1113 12.7437 33.1113 16C33.1113 19.2369 33.7404 21.9696 34.9941 24.2012C36.2556 26.4199 37.9517 28.1082 40.082 29.2666L40.084 29.2676L40.0967 29.2744C42.2447 30.4241 44.6505 31 47.3145 31V32L46.79 31.9932C44.1812 31.9217 41.7872 31.3134 39.625 30.1562L39.6211 30.1543C37.3104 28.9018 35.4769 27.0731 34.125 24.6953L34.1221 24.6924C32.8496 22.4279 32.1959 19.7269 32.1191 16.626L32.1113 16C32.1113 12.8292 32.6849 10.0667 33.876 7.75L34.123 7.29199L34.124 7.29102C35.4762 4.90273 37.3112 3.07694 39.626 1.84277C41.9319 0.608915 44.5019 3.70309e-05 47.3145 0L47.835 0.00683594C50.4268 0.0782427 52.8111 0.686184 54.9717 1.8418C57.2957 3.0754 59.1375 4.90037 60.4902 7.28906C61.8595 9.69734 62.5176 12.6165 62.5176 16C62.5176 19.3837 61.8596 22.3067 60.4912 24.7236L60.4902 24.7246C59.1374 27.1039 57.2974 28.9282 54.9756 30.1709L54.9727 30.1729L54.5371 30.3945C52.3467 31.4688 49.9337 32 47.3145 32V31C49.9595 31 52.3559 30.4292 54.5039 29.2891C56.6505 28.1401 58.3557 26.4541 59.6201 24.2305C60.8836 21.9987 61.5176 19.2562 61.5176 16ZM241.115 18.3477V14.3408H228.23V19.8916H233.749L233.37 21.1748C233.269 21.516 233.129 21.8348 232.947 22.1289C232.548 22.7756 231.947 23.2756 231.15 23.6318L231.147 23.6348L231.125 23.6455L231.103 23.6553L231.481 24.5166C231.361 24.5695 231.237 24.6188 231.109 24.665L231.094 24.6709L231.079 24.6758L230.749 24.7832L230.748 24.7822C230.738 24.7851 230.729 24.7892 230.72 24.792L230.441 23.8926C229.759 24.0904 228.963 24.1895 228.057 24.1895C226.672 24.1893 225.51 23.8619 224.572 23.2051C223.636 22.5485 222.932 21.6026 222.461 20.3721C221.99 19.1425 221.755 17.6659 221.755 15.9434C221.755 14.528 221.927 13.2825 222.265 12.207L222.236 12.1787L222.491 11.5615C222.991 10.3544 223.713 9.42805 224.654 8.7832L224.659 8.78027C225.615 8.13341 226.769 7.81055 228.115 7.81055C228.739 7.8106 229.313 7.88261 229.834 8.02734C229.836 8.02793 229.838 8.02871 229.84 8.0293L229.853 8.03223L229.86 8.03418C229.865 8.03537 229.869 8.03688 229.874 8.03809C230.322 8.1558 230.722 8.32507 231.075 8.54883L231.228 8.65137L231.257 8.67188L231.258 8.67285C231.637 8.93123 231.956 9.24521 232.215 9.61328L232.229 9.63281L232.244 9.65332C232.508 10.0305 232.702 10.4666 232.828 10.96H240.763C240.605 9.52306 240.182 8.20227 239.49 6.99707C238.788 5.77329 237.861 4.71499 236.712 3.82227L236.705 3.81641C235.569 2.91843 234.257 2.22779 232.77 1.74414L232.699 1.7207C231.235 1.24098 229.65 1.00006 227.943 1C225.976 1 224.131 1.33198 222.412 1.99609L222.408 1.99805C220.688 2.65357 219.172 3.62697 217.86 4.91895L217.857 4.92188C216.548 6.2032 215.523 7.77491 214.781 9.63672C214.049 11.4989 213.683 13.6389 213.683 16.0566C213.683 19.1321 214.279 21.7833 215.47 24.0117L215.479 24.0303L216.307 23.583C216.376 23.7113 216.448 23.8375 216.521 23.9619L216.76 24.3584L215.96 24.8506C217.119 26.6889 218.635 28.1353 220.512 29.1895C222.659 30.3956 225.154 31 228 31V32C225.009 32 222.34 31.3638 220.021 30.0615C217.704 28.7598 215.895 26.9006 214.601 24.5068L214.599 24.5039C213.389 22.2485 212.763 19.6228 212.689 16.6553L212.683 16.0566C212.683 13.5389 213.065 11.2714 213.851 9.27148L213.852 9.26758C214.591 7.4113 215.604 5.80759 216.896 4.4707L217.158 4.20703C218.48 2.9045 219.999 1.90037 221.708 1.19922L222.052 1.06348C223.894 0.352025 225.861 0 227.943 0L228.623 0.0126953C230.197 0.0699186 231.685 0.327077 233.08 0.791992L233.079 0.792969C234.67 1.31035 236.089 2.05508 237.325 3.03223C238.574 4.0021 239.589 5.15843 240.358 6.49902C241.133 7.84855 241.6 9.32629 241.766 10.9209L241.874 11.96H232.044L231.869 11.2422C231.77 10.8366 231.618 10.5021 231.425 10.2266L231.419 10.2188C231.221 9.92897 230.974 9.68382 230.672 9.48242L230.66 9.47656L230.65 9.46777C230.364 9.26562 230.014 9.10496 229.586 8.99609L229.577 8.99316L229.566 8.99121C229.25 8.90345 228.9 8.84548 228.514 8.82227L228.115 8.81055C226.934 8.81055 225.984 9.09152 225.22 9.6084C224.46 10.1287 223.851 10.8904 223.415 11.9443L223.416 11.9453L223.265 12.3555C222.932 13.3419 222.755 14.5321 222.755 15.9434L222.766 16.543C222.814 17.9125 223.031 19.0642 223.395 20.0146C223.806 21.0887 224.397 21.8607 225.146 22.3857C225.79 22.8371 226.599 23.1136 227.61 23.1758L228.057 23.1895C229.044 23.1895 229.833 23.063 230.447 22.8408L230.7 22.7402L230.703 22.7383C231.368 22.4491 231.812 22.0632 232.097 21.6025C232.229 21.3882 232.334 21.1522 232.411 20.8916H227.23V13.3408H242.115V18.3477L242.108 18.8691C242.038 21.4593 241.439 23.7425 240.277 25.6855L240.278 25.6865L240.044 26.0645C238.846 27.9253 237.236 29.3718 235.229 30.3945L235.228 30.3955L234.825 30.5908C232.797 31.5373 230.516 32 228 32V31C230.55 31 232.808 30.4999 234.774 29.5029C236.736 28.5038 238.275 27.0751 239.394 25.2158L239.419 25.1729C240.548 23.2847 241.115 21.0104 241.115 18.3477ZM185.222 0.00488281C187.504 0.0534311 189.537 0.466749 191.297 1.27344C193.167 2.13065 194.643 3.35741 195.686 4.96094L195.878 5.26367C196.806 6.79491 197.263 8.54971 197.272 10.498L197.278 11.4453H187.846L187.776 10.5781C187.717 9.83519 187.453 9.34009 187.037 8.99219L187.031 8.98828C186.692 8.70104 186.115 8.47322 185.184 8.4209L184.763 8.41016C184.009 8.41016 183.46 8.50328 183.079 8.64844L183.069 8.65137C182.671 8.79872 182.462 8.96974 182.353 9.11719C182.225 9.28929 182.157 9.48164 182.151 9.72266V9.7373L182.15 9.75293C182.14 9.95145 182.174 10.1014 182.231 10.2236C182.301 10.3428 182.426 10.4868 182.646 10.6436C182.885 10.8048 183.223 10.9713 183.676 11.1338C184.016 11.2555 184.414 11.3716 184.872 11.4795L185.353 11.5859L185.359 11.5869L187.766 12.1016C189.443 12.4567 190.907 12.9324 192.147 13.5371C193.379 14.1374 194.419 14.8591 195.244 15.7148C196.066 16.5573 196.678 17.5173 197.069 18.5898C197.465 19.6478 197.663 20.7893 197.674 22.0039V22.0166C197.663 24.104 197.139 25.9346 196.053 27.4551L195.846 27.7334C194.784 29.1006 193.332 30.1279 191.535 30.833L191.534 30.832C189.631 31.5825 187.384 31.9434 184.819 31.9434V30.9434C187.295 30.9434 189.41 30.5942 191.167 29.9014L191.269 29.8613C192.987 29.1696 194.309 28.174 195.238 26.874C196.184 25.5498 196.664 23.93 196.674 22.0127L196.663 21.6006C196.617 20.6481 196.44 19.7613 196.133 18.9404L196.13 18.9326C195.789 17.9994 195.255 17.1593 194.527 16.4131L194.523 16.4092C193.795 15.6535 192.858 14.995 191.71 14.4355C190.56 13.8752 189.177 13.4228 187.559 13.0801H187.557L185.15 12.5654L185.137 12.5615L184.657 12.4561L184.65 12.4551L184.644 12.4531C184.156 12.3385 183.721 12.2122 183.339 12.0752C182.834 11.8943 182.416 11.6945 182.088 11.4736L182.077 11.4658L182.065 11.458C181.841 11.2982 181.659 11.1256 181.516 10.9424L180.775 11.5254C180.772 11.5207 180.768 11.5155 180.765 11.5107L180.764 11.5098C180.756 11.4996 180.74 11.4807 180.724 11.458L180.713 11.4443L180.704 11.4307L180.635 11.3301L180.636 11.3291C180.63 11.3209 180.624 11.3131 180.618 11.3047L181.404 10.7812C181.393 10.7634 181.38 10.7466 181.369 10.7285L181.347 10.6904L181.327 10.6514C181.197 10.3756 181.14 10.0708 181.152 9.7373L181.151 9.7002C181.161 9.25866 181.295 8.86421 181.551 8.52051C181.807 8.17609 182.199 7.90772 182.723 7.71387L182.752 7.70312L182.782 7.69336C183.168 7.55428 183.628 7.46517 184.161 7.42871L184.107 6.48926C184.32 6.47503 184.539 6.46875 184.763 6.46875V7.41016C186.058 7.41025 187.033 7.67862 187.678 8.22461C187.712 8.25345 187.745 8.28442 187.778 8.31445L188.408 7.61426L188.416 7.62109L188.427 7.62988L188.438 7.63965L188.464 7.66602L188.46 7.66211L187.813 8.34668C188.369 8.87043 188.686 9.57059 188.767 10.4453H196.271C196.254 8.67923 195.837 7.12564 195.022 5.78223L194.848 5.50586L194.669 5.24121C193.752 3.94009 192.489 2.92046 190.88 2.18262C189.162 1.39504 187.123 1.00008 184.763 1C182.458 1 180.414 1.38705 178.633 2.16016L178.614 2.16895C176.838 2.9475 175.447 4.03334 174.442 5.42578L174.443 5.42676C173.45 6.80711 172.956 8.4196 172.964 10.2656V10.2744C172.954 12.5506 173.69 14.3419 175.164 15.6553L175.45 15.8965C176.866 17.043 178.735 17.8812 181.06 18.4111H181.562L181.568 18.5234L184.198 19.0918H184.202C185.291 19.3306 186.16 19.5892 186.805 19.8682C187.449 20.1372 187.917 20.4475 188.202 20.8018L188.224 20.8291L188.228 20.835C188.499 21.1657 188.642 21.5493 188.656 21.9844L188.657 22.0195L188.656 22.0547C188.639 22.5264 188.484 22.9498 188.188 23.3223C187.883 23.7047 187.439 24.002 186.858 24.2148C186.277 24.4279 185.558 24.5332 184.704 24.5332C183.813 24.5331 183.027 24.4115 182.347 24.168L182.334 24.1631L182.32 24.1582L182.092 24.0684L182.073 24.0615L182.056 24.0537C181.322 23.7344 180.752 23.2644 180.346 22.6455C179.947 22.0376 179.721 21.2919 179.667 20.4111H172.221C172.238 22.8267 172.761 24.8071 173.783 26.3564L173.787 26.3613C174.83 27.9149 176.289 29.067 178.168 29.8164L178.526 29.9521C180.338 30.6121 182.435 30.9434 184.819 30.9434V31.9434L184.328 31.9385C181.888 31.8926 179.706 31.5017 177.8 30.7451H177.798L177.418 30.5869C175.669 29.8209 174.248 28.7044 173.179 27.2363L172.955 26.916L172.951 26.9111C171.784 25.1441 171.23 22.9368 171.22 20.3555L171.216 19.4111H180.614L180.661 20.3018C180.702 21.0702 180.891 21.6539 181.182 22.0967C181.473 22.5403 181.885 22.8887 182.455 23.1367L182.684 23.2266C183.165 23.399 183.737 23.5046 184.41 23.5283L184.704 23.5332C185.483 23.5332 186.078 23.4356 186.515 23.2754C186.913 23.1292 187.172 22.9542 187.339 22.7764L187.405 22.7002C187.567 22.4965 187.648 22.2783 187.657 22.0176C187.652 21.8466 187.611 21.7046 187.532 21.5762L187.441 21.4512L187.432 21.4404L187.424 21.4297C187.286 21.2585 186.988 21.028 186.418 20.79L186.407 20.7861C185.846 20.5433 185.047 20.3016 183.987 20.0693L181.07 19.4395C178.367 18.8534 176.156 17.8581 174.504 16.4062L174.5 16.4023C172.778 14.8689 171.953 12.7863 171.964 10.2705C171.955 8.23199 172.504 6.40901 173.631 4.84277C174.753 3.28701 176.294 2.09417 178.213 1.25293L178.214 1.25195C180.147 0.409056 182.337 0 184.763 0L185.222 0.00488281ZM79.4648 0.405273C81.584 0.454198 83.4902 0.871552 85.1621 1.68262C86.9498 2.55002 88.3594 3.81175 89.3643 5.46094C90.377 7.12335 90.8622 9.08545 90.8623 11.3047C90.8623 13.5451 90.362 15.5037 89.3076 17.1279L89.3066 17.127C88.5165 18.3554 87.482 19.348 86.2178 20.1064L92.4795 31.5996H81.6816L76.5322 21.9229H75.2832V31.5996H65.4395V0.400391H79.0391L79.4648 0.405273ZM102.336 7.69531H115.51V1.40039H94.4922V30.5996H115.453V24.3047H102.336V19.1484H114.422V12.8516H102.336V7.69531ZM138.693 0.400391V31.5996H128.85V0.400391H138.693ZM159.119 13.9629V0.400391H168.963V31.5996H160.884L151.551 18.0342V31.5996H141.707V0.400391H149.905L159.119 13.9629ZM209.786 0.400391V31.5996H199.942V0.400391H209.786ZM293.179 7.69531H302V1.40039H276.63V7.69531H285.45V30.5996H293.179V7.69531ZM200.942 30.5996H208.786V1.40039H200.942V30.5996ZM142.707 30.5996H150.551V14.8164L161.41 30.5996H167.963V1.40039H160.119V17.2148L149.375 1.40039H142.707V30.5996ZM129.85 30.5996H137.693V1.40039H129.85V30.5996ZM66.4395 30.5996H74.2832V20.9229H77.1338L77.415 21.4531L82.2822 30.5996H90.7959L84.8799 19.7422L85.7031 19.249C86.8395 18.5673 87.7611 17.6817 88.4658 16.5859L88.502 16.5293C89.4062 15.1109 89.8605 13.3727 89.8613 11.3105L88.9219 11.3174L88.9209 11.2803C88.9207 11.1692 88.9191 11.0581 88.916 10.9473L89.8574 10.9199C89.8148 9.38671 89.515 8.02292 88.9609 6.82715L88.1084 7.22266C88.0722 7.14451 88.0345 7.06744 87.9961 6.99121L87.8428 6.70215L88.668 6.25293C88.6169 6.16158 88.5651 6.07064 88.5107 5.98145C87.61 4.50295 86.3482 3.37032 84.7256 2.58301C83.1029 1.79581 81.2081 1.40044 79.0391 1.40039H66.4395V30.5996ZM52.4443 16C52.4443 14.3214 52.2198 12.9654 51.8066 11.9033L51.8037 11.8955C51.4514 10.9638 50.9669 10.2758 50.3682 9.78809L50.1055 9.59082L50.0957 9.58496C49.475 9.14934 48.7017 8.88284 47.7383 8.82324L47.3145 8.81055C46.1513 8.81059 45.2354 9.08642 44.5146 9.58691L44.5137 9.58789C43.7994 10.0816 43.2216 10.8315 42.8086 11.9014C42.404 12.9649 42.1836 14.3216 42.1836 16C42.1836 17.6756 42.4031 19.0365 42.8076 20.1104L42.9697 20.4932C43.3656 21.3524 43.886 21.9837 44.5137 22.4258C45.1444 22.856 45.9246 23.118 46.8896 23.1768L47.3145 23.1895C48.4809 23.1894 49.3917 22.9165 50.1016 22.4258C50.8273 21.9212 51.4028 21.1714 51.8047 20.1172L51.8057 20.1133C52.2199 19.0401 52.4443 17.6782 52.4443 16ZM12.3057 23.4404C12.3403 23.4593 12.376 23.476 12.4111 23.4941C12.3147 23.4444 12.2187 23.3935 12.126 23.3379L12.3057 23.4404ZM50.6357 23.2002L50.8047 23.0791C50.84 23.0523 50.8736 23.0228 50.9082 22.9951C50.8196 23.0661 50.7291 23.1353 50.6357 23.2002ZM42.5469 21.6836C42.5715 21.7223 42.5977 21.76 42.623 21.7979C42.5574 21.6998 42.4928 21.5991 42.4316 21.4951L42.5469 21.6836ZM52.6846 20.4521L52.7686 20.2217C52.7822 20.1829 52.7944 20.1428 52.8076 20.1035C52.7679 20.2218 52.7284 20.3387 52.6846 20.4521ZM79.2305 13.5654L79.5586 14.5098C79.0769 14.6772 78.5232 14.7819 77.8984 14.8281L77.9688 15.7666C77.9688 15.7666 77.9639 15.7672 77.96 15.7676C77.9489 15.7687 77.921 15.7714 77.8896 15.7734L77.8818 15.7744H77.874L77.543 15.791L77.542 15.79C77.5362 15.7902 77.5302 15.7918 77.5244 15.792L77.4854 14.8516C77.3751 14.855 77.2628 14.8564 77.1484 14.8564H74.2832V7.63867H77.1484V8.63867H75.2832V13.8564H77.1484C78.0121 13.8564 78.6986 13.7503 79.2305 13.5654ZM77.4932 14.792L77.8242 14.7754C77.8478 14.7738 77.8712 14.7713 77.8945 14.7695C77.7639 14.7792 77.6302 14.7876 77.4932 14.792ZM80.6748 11.3047C80.6747 10.6849 80.5577 10.2407 80.3779 9.92188L80.2979 9.79297L80.292 9.78516L80.2871 9.77637C80.0564 9.42745 79.7149 9.15259 79.2119 8.96582L79.2051 8.96289L79.1963 8.96094C78.7409 8.7829 78.1681 8.66992 77.46 8.64453L77.1484 8.63867V7.63867C78.0661 7.63868 78.8541 7.76333 79.5117 8.01172L79.5391 8.02051L79.5566 8.02734L79.5596 8.02832H79.5615L79.5635 8.0293C80.1563 8.24979 80.6281 8.58259 80.9785 9.02734L81.1221 9.22559L81.1426 9.25781L81.1621 9.29102C81.5037 9.81815 81.6747 10.4898 81.6748 11.3047C81.6747 12.0379 81.5353 12.6551 81.25 13.1533L81.2373 13.1748L81.2246 13.1953L81.1445 13.3203L81.1396 13.3281L81.1299 13.3428L81.1201 13.3564C80.7612 13.8799 80.2436 14.2633 79.5693 14.5059L79.5586 14.5098L79.2305 13.5654C79.7342 13.3842 80.0708 13.1193 80.2959 12.791L80.3018 12.7812L80.3818 12.6562C80.5585 12.3477 80.6748 11.9143 80.6748 11.3047ZM263.566 11.8516V0.400391H273.41V31.5996H263.566V20.1484H254.909V31.5996H245.065V0.400391H254.909V11.8516H263.566ZM89.9219 11.3047L89.917 10.9434C89.9168 10.9354 89.9162 10.9269 89.916 10.9189C89.9195 11.0462 89.9219 11.1751 89.9219 11.3047ZM181.527 10.8643C181.538 10.8789 181.55 10.8928 181.562 10.9072C181.525 10.8602 181.49 10.8124 181.459 10.7637L181.527 10.8643ZM187.773 8.38965C187.768 8.38434 187.763 8.37831 187.757 8.37305L187.75 8.36719C187.758 8.37454 187.766 8.38223 187.773 8.38965ZM188.481 7.68262C188.483 7.68417 188.484 7.68652 188.484 7.68652L188.47 7.67188L188.481 7.68262ZM26.9033 7.05664C26.8383 6.94014 26.7725 6.82418 26.7041 6.71094C26.6819 6.67424 26.6592 6.63797 26.6367 6.60156C26.7287 6.75026 26.8171 6.90224 26.9033 7.05664ZM88.8799 6.52344C88.9266 6.61543 88.9721 6.70869 89.0156 6.80273C88.9258 6.60878 88.8288 6.41862 88.7256 6.2334L88.8799 6.52344ZM26.6367 6.60156C26.6087 6.55605 26.5805 6.50977 26.5518 6.46484C26.4917 6.37083 26.4287 6.27916 26.3662 6.1875C26.4585 6.32305 26.5497 6.46089 26.6367 6.60156ZM26.333 6.1377C26.2442 6.00897 26.1541 5.88189 26.0605 5.75781C26.0519 5.74632 26.0419 5.73507 26.0332 5.72363C26.1359 5.85893 26.236 5.99682 26.333 6.1377ZM10.0059 1.75879C9.9789 1.76813 9.95268 1.77957 9.92578 1.78906C9.97769 1.77075 10.0299 1.7521 10.082 1.73438L10.0059 1.75879ZM53.4443 16C53.4443 17.5955 53.2489 18.969 52.8623 20.1211L53.7559 20.4219C53.7522 20.4329 53.749 20.4435 53.7412 20.4678C53.7346 20.4884 53.7238 20.5199 53.7119 20.5537L53.708 20.5654L53.623 20.7959C53.621 20.8013 53.6193 20.8071 53.6172 20.8125L52.7354 20.4805C52.3211 21.564 51.7246 22.4175 50.9453 23.041L51.5332 23.7764C51.5218 23.7855 51.5143 23.7918 51.4902 23.8115C51.4707 23.8275 51.4414 23.8508 51.4082 23.876L51.3984 23.8828L51.3896 23.8896L51.2217 24.0117L51.2207 24.0107C51.216 24.0141 51.2118 24.0182 51.207 24.0215L50.6621 23.2529C50.5554 23.3264 50.4455 23.3951 50.333 23.46L50.8057 24.2754L50.7949 24.2822L50.7871 24.2861C50.7621 24.3004 50.7397 24.3129 50.7295 24.3184C50.7157 24.3256 50.7168 24.3242 50.7168 24.3242L50.2607 23.5C49.4315 23.959 48.4493 24.1894 47.3145 24.1895C45.9898 24.1894 44.8674 23.8775 43.9502 23.252L43.9434 23.2471L43.9375 23.2432C43.4094 22.8712 42.9564 22.3987 42.5752 21.8291L41.792 22.3535L41.7031 22.2207L41.6982 22.2129L41.6934 22.2041L41.5781 22.0156C41.5757 22.0116 41.5727 22.007 41.5703 22.0029L42.3789 21.5176C42.2661 21.3254 42.1593 21.1242 42.0615 20.9121L42.0479 20.8828L41.8867 20.499L41.8789 20.4814L41.8721 20.4629C41.4132 19.2445 41.1836 17.7564 41.1836 16C41.1836 14.241 41.4137 12.7559 41.874 11.5459L41.876 11.542C42.3471 10.3213 43.0356 9.39387 43.9443 8.76562L44.0029 8.72559L44.0117 8.7207C44.9174 8.11355 46.0192 7.81059 47.3145 7.81055C48.6414 7.81059 49.7611 8.12794 50.6699 8.76562L50.6748 8.76855L50.6787 8.77148C51.5925 9.39925 52.2788 10.3234 52.7393 11.541L52.7461 11.5605C53.2122 12.7681 53.4443 14.2487 53.4443 16ZM264.566 12.8516H253.909V1.40039H246.065V30.5996H253.909V19.1484H264.566V30.5996H272.41V1.40039H264.566V12.8516ZM103.336 11.8516H115.422V20.1484H103.336V23.3047H116.453V31.5996H93.4922V0.400391H116.51V8.69531H103.336V11.8516ZM294.179 31.5996H284.45V8.69531H275.63V0.400391H303V8.69531H294.179V31.5996Z" fill="var(--fill-0, #181818)"/>
<path d="M9.07227 16C9.07227 14.2989 9.3071 12.838 9.77637 11.6191L9.96973 11.168C10.4388 10.1615 11.078 9.36865 11.8896 8.79395L11.8945 8.79102C12.8316 8.13595 13.9739 7.81061 15.3174 7.81055C16.0834 7.81055 16.7708 7.92022 17.3779 8.14062L17.3916 8.14551C17.9972 8.35776 18.5125 8.66609 18.9375 9.07129L19.0957 9.22363C19.4458 9.57767 19.7256 9.98818 19.9355 10.4541L19.9492 10.4805L19.9609 10.5078L19.9619 10.5107C20.2018 11.0421 20.3505 11.6313 20.4111 12.2764H28.3682C28.2112 10.4862 27.7827 8.8968 27.0791 7.50879C27.0063 7.36514 26.9291 7.2249 26.8516 7.08594L26.0303 7.54492C26.0194 7.52542 26.0078 7.50634 25.9971 7.4873C25.9274 7.36406 25.8581 7.24332 25.7861 7.12695C25.7094 7.00293 25.6266 6.87856 25.5391 6.75L26.3164 6.21973C26.3054 6.2036 26.2952 6.18695 26.2842 6.1709L25.5098 6.70605C25.4812 6.6646 25.451 6.62484 25.4229 6.58496C25.2684 6.36746 25.1085 6.15645 24.9395 5.95508L25.6582 5.35059C25.2984 4.92196 24.9088 4.52306 24.4863 4.15625L24.2549 3.96094C23.0878 2.9942 21.7306 2.25906 20.1826 1.75586C18.6332 1.25222 16.9352 1.00003 15.0889 1C13.3131 1.00001 11.6519 1.2638 10.1045 1.78906L10.4033 2.68164C10.3562 2.69767 10.3076 2.71386 10.2578 2.73145L9.94434 1.84375C9.40219 2.0351 8.87421 2.25927 8.36035 2.51562L7.95312 2.72559L7.9541 2.72656C5.82809 3.86577 4.13818 5.55041 2.88379 7.78223L2.88281 7.78418C1.62898 10.0062 1 12.7438 1 16C1 19.2371 1.61439 21.9703 2.83984 24.2021L3.07617 24.6152C4.28652 26.6452 5.88533 28.1982 7.87109 29.2754L8.27344 29.4844C10.3015 30.4946 12.5733 31 15.0889 31V32C12.2579 32 9.68553 31.3919 7.39551 30.1553L7.39453 30.1543C5.24214 28.9868 3.51595 27.3031 2.21875 25.1279L1.96484 24.6865L1.96387 24.6836C0.638421 22.2698 2.27116e-07 19.3614 0 16C7.19065e-09 12.8292 0.573585 10.0667 1.76465 7.75L2.01172 7.29199C3.35344 4.90483 5.17824 3.07932 7.48242 1.84473L7.91406 1.62012C10.0879 0.535688 12.4853 9.5115e-06 15.0889 0C17.0265 3.17859e-05 18.8299 0.264744 20.4912 0.804688C22.1505 1.34404 23.6221 2.13817 24.8936 3.19141L25.1299 3.39062C26.2993 4.40334 27.2466 5.62841 27.9707 7.05664C28.7493 8.59257 29.2107 10.3319 29.3721 12.2568L29.457 13.2764H19.4941L19.4209 12.416C19.3779 11.9143 19.2735 11.4689 19.1152 11.0742L19.041 10.9014L19.0381 10.8965C18.8512 10.4705 18.5936 10.1111 18.2637 9.81055L18.2559 9.80371L18.248 9.7959C17.9734 9.53387 17.6391 9.31808 17.2334 9.1543L17.0557 9.08691L17.043 9.08301C16.5628 8.90779 15.9916 8.81055 15.3174 8.81055C14.1402 8.81061 13.2067 9.09306 12.4668 9.61035C11.7227 10.1373 11.1301 10.9094 10.709 11.9785C10.295 13.0538 10.0723 14.3863 10.0723 16C10.0723 17.7128 10.3009 19.0874 10.7197 20.1553C11.1478 21.2125 11.7396 21.955 12.4707 22.4434C13.1159 22.8661 13.8976 23.1198 14.8447 23.1768L15.2607 23.1895C15.9175 23.1894 16.4778 23.1081 16.9521 22.9609C17.371 22.8227 17.7285 22.6388 18.0312 22.4141L18.1572 22.3154C18.4491 22.0755 18.6926 21.7936 18.8896 21.4658L18.9717 21.3223L18.9746 21.3174C19.1659 20.968 19.3079 20.5712 19.3945 20.1211L19.4277 19.9248L19.5508 19.1182L29.4502 19.1885L29.373 20.1953L29.3203 20.708C29.1676 21.9067 28.8035 23.11 28.2412 24.3145V24.3164C27.5879 25.7054 26.6643 26.9784 25.4854 28.1367L25.2568 28.3545C24.1031 29.428 22.712 30.2887 21.0986 30.9434L20.7666 31.0723C19.0894 31.6977 17.1912 32 15.0889 32V31C17.2305 31 19.1083 30.6716 20.7227 30.0166C22.339 29.3607 23.6926 28.4961 24.7842 27.4238C25.8872 26.3402 26.7379 25.1623 27.3359 23.8906L27.3369 23.8896L27.3408 23.8799L27.3428 23.876C27.9272 22.6201 28.2679 21.3882 28.3691 20.1807L20.4082 20.124C20.3117 20.7271 20.1313 21.2736 19.8682 21.7637L19.8662 21.7695L19.8594 21.7832L19.8516 21.7969C19.5806 22.2999 19.2269 22.7303 18.792 23.0879C18.3584 23.4442 17.8485 23.7177 17.2656 23.9102L17.2578 23.9131L17.249 23.916C16.6621 24.0981 15.9993 24.1894 15.2607 24.1895C14.1716 24.1894 13.2124 23.9748 12.3838 23.5469L11.9521 24.3828C11.9404 24.3767 11.9326 24.3726 11.9082 24.3604C11.8882 24.3502 11.8583 24.3359 11.8262 24.3184L11.8184 24.3135L11.8105 24.3096L11.6318 24.207C11.6255 24.2033 11.6187 24.1991 11.6123 24.1953L12.0869 23.3818L11.915 23.2744C10.9897 22.6562 10.2827 21.7399 9.79297 20.5303L9.78809 20.5205C9.30997 19.3015 9.07227 17.7938 9.07227 16ZM61.5176 16C61.5176 14.5787 61.3965 13.2563 61.1553 12.0322L60.2344 12.2227L60.1221 11.7012L60.0078 11.2393L60.0039 11.2217L60.9141 10.9873C60.6029 9.82123 60.1714 8.75372 59.6201 7.78418V7.78223C58.3559 5.54978 56.6494 3.86497 54.5029 2.72559L54.5 2.72363C52.3527 1.5751 49.9579 1.00004 47.3145 1C46.1489 1.00002 45.0325 1.10983 43.9658 1.33008L44.1562 2.25195C44.0131 2.28151 43.8712 2.31327 43.7314 2.34668L43.7305 2.3457C43.5948 2.37805 43.4606 2.414 43.3271 2.4502L43.2959 2.45801L43.0557 1.54785C42.0209 1.8306 41.0354 2.22338 40.0986 2.72461L40.0967 2.72559C37.9594 3.86513 36.2586 5.55075 34.9941 7.78418C33.7403 10.0062 33.1113 12.7437 33.1113 16C33.1113 19.2369 33.7404 21.9696 34.9941 24.2012C36.2556 26.4199 37.9517 28.1082 40.082 29.2666L40.084 29.2676L40.0967 29.2744C42.2447 30.4241 44.6505 31 47.3145 31V32L46.79 31.9932C44.1812 31.9217 41.7872 31.3134 39.625 30.1562L39.6211 30.1543C37.3104 28.9018 35.4769 27.0731 34.125 24.6953L34.1221 24.6924C32.8496 22.4279 32.1959 19.7269 32.1191 16.626L32.1113 16C32.1113 12.8292 32.6849 10.0667 33.876 7.75L34.123 7.29199L34.124 7.29102C35.4762 4.90273 37.3112 3.07694 39.626 1.84277C41.9319 0.608915 44.5019 3.70309e-05 47.3145 0L47.835 0.00683594C50.4268 0.0782427 52.8111 0.686184 54.9717 1.8418C57.2957 3.0754 59.1375 4.90037 60.4902 7.28906C61.8595 9.69734 62.5176 12.6165 62.5176 16C62.5176 19.3837 61.8596 22.3067 60.4912 24.7236L60.4902 24.7246C59.1374 27.1039 57.2974 28.9282 54.9756 30.1709L54.9727 30.1729L54.5371 30.3945C52.3467 31.4688 49.9337 32 47.3145 32V31C49.9595 31 52.3559 30.4292 54.5039 29.2891C56.6505 28.1401 58.3557 26.4541 59.6201 24.2305C60.8836 21.9987 61.5176 19.2562 61.5176 16ZM241.115 18.3477V14.3408H228.23V19.8916H233.749L233.37 21.1748C233.269 21.516 233.129 21.8348 232.947 22.1289C232.548 22.7756 231.947 23.2756 231.15 23.6318L231.147 23.6348L231.125 23.6455L231.103 23.6553L231.481 24.5166C231.361 24.5695 231.237 24.6188 231.109 24.665L231.094 24.6709L231.079 24.6758L230.749 24.7832L230.748 24.7822C230.738 24.7851 230.729 24.7892 230.72 24.792L230.441 23.8926C229.759 24.0904 228.963 24.1895 228.057 24.1895C226.672 24.1893 225.51 23.8619 224.572 23.2051C223.636 22.5485 222.932 21.6026 222.461 20.3721C221.99 19.1425 221.755 17.6659 221.755 15.9434C221.755 14.528 221.927 13.2825 222.265 12.207L222.236 12.1787L222.491 11.5615C222.991 10.3544 223.713 9.42805 224.654 8.7832L224.659 8.78027C225.615 8.13341 226.769 7.81055 228.115 7.81055C228.739 7.8106 229.313 7.88261 229.834 8.02734C229.836 8.02793 229.838 8.02871 229.84 8.0293L229.853 8.03223L229.86 8.03418C229.865 8.03537 229.869 8.03688 229.874 8.03809C230.322 8.1558 230.722 8.32507 231.075 8.54883L231.228 8.65137L231.257 8.67188L231.258 8.67285C231.637 8.93123 231.956 9.24521 232.215 9.61328L232.229 9.63281L232.244 9.65332C232.508 10.0305 232.702 10.4666 232.828 10.96H240.763C240.605 9.52306 240.182 8.20227 239.49 6.99707C238.788 5.77329 237.861 4.71499 236.712 3.82227L236.705 3.81641C235.569 2.91843 234.257 2.22779 232.77 1.74414L232.699 1.7207C231.235 1.24098 229.65 1.00006 227.943 1C225.976 1 224.131 1.33198 222.412 1.99609L222.408 1.99805C220.688 2.65357 219.172 3.62697 217.86 4.91895L217.857 4.92188C216.548 6.2032 215.523 7.77491 214.781 9.63672C214.049 11.4989 213.683 13.6389 213.683 16.0566C213.683 19.1321 214.279 21.7833 215.47 24.0117L215.479 24.0303L216.307 23.583C216.376 23.7113 216.448 23.8375 216.521 23.9619L216.76 24.3584L215.96 24.8506C217.119 26.6889 218.635 28.1353 220.512 29.1895C222.659 30.3956 225.154 31 228 31V32C225.009 32 222.34 31.3638 220.021 30.0615C217.704 28.7598 215.895 26.9006 214.601 24.5068L214.599 24.5039C213.389 22.2485 212.763 19.6228 212.689 16.6553L212.683 16.0566C212.683 13.5389 213.065 11.2714 213.851 9.27148L213.852 9.26758C214.591 7.4113 215.604 5.80759 216.896 4.4707L217.158 4.20703C218.48 2.9045 219.999 1.90037 221.708 1.19922L222.052 1.06348C223.894 0.352025 225.861 0 227.943 0L228.623 0.0126953C230.197 0.0699186 231.685 0.327077 233.08 0.791992L233.079 0.792969C234.67 1.31035 236.089 2.05508 237.325 3.03223C238.574 4.0021 239.589 5.15843 240.358 6.49902C241.133 7.84855 241.6 9.32629 241.766 10.9209L241.874 11.96H232.044L231.869 11.2422C231.77 10.8366 231.618 10.5021 231.425 10.2266L231.419 10.2188C231.221 9.92897 230.974 9.68382 230.672 9.48242L230.66 9.47656L230.65 9.46777C230.364 9.26562 230.014 9.10496 229.586 8.99609L229.577 8.99316L229.566 8.99121C229.25 8.90345 228.9 8.84548 228.514 8.82227L228.115 8.81055C226.934 8.81055 225.984 9.09152 225.22 9.6084C224.46 10.1287 223.851 10.8904 223.415 11.9443L223.416 11.9453L223.265 12.3555C222.932 13.3419 222.755 14.5321 222.755 15.9434L222.766 16.543C222.814 17.9125 223.031 19.0642 223.395 20.0146C223.806 21.0887 224.397 21.8607 225.146 22.3857C225.79 22.8371 226.599 23.1136 227.61 23.1758L228.057 23.1895C229.044 23.1895 229.833 23.063 230.447 22.8408L230.7 22.7402L230.703 22.7383C231.368 22.4491 231.812 22.0632 232.097 21.6025C232.229 21.3882 232.334 21.1522 232.411 20.8916H227.23V13.3408H242.115V18.3477L242.108 18.8691C242.038 21.4593 241.439 23.7425 240.277 25.6855L240.278 25.6865L240.044 26.0645C238.846 27.9253 237.236 29.3718 235.229 30.3945L235.228 30.3955L234.825 30.5908C232.797 31.5373 230.516 32 228 32V31C230.55 31 232.808 30.4999 234.774 29.5029C236.736 28.5038 238.275 27.0751 239.394 25.2158L239.419 25.1729C240.548 23.2847 241.115 21.0104 241.115 18.3477ZM185.222 0.00488281C187.504 0.0534311 189.537 0.466749 191.297 1.27344C193.167 2.13065 194.643 3.35741 195.686 4.96094L195.878 5.26367C196.806 6.79491 197.263 8.54971 197.272 10.498L197.278 11.4453H187.846L187.776 10.5781C187.717 9.83519 187.453 9.34009 187.037 8.99219L187.031 8.98828C186.692 8.70104 186.115 8.47322 185.184 8.4209L184.763 8.41016C184.009 8.41016 183.46 8.50328 183.079 8.64844L183.069 8.65137C182.671 8.79872 182.462 8.96974 182.353 9.11719C182.225 9.28929 182.157 9.48164 182.151 9.72266V9.7373L182.15 9.75293C182.14 9.95145 182.174 10.1014 182.231 10.2236C182.301 10.3428 182.426 10.4868 182.646 10.6436C182.885 10.8048 183.223 10.9713 183.676 11.1338C184.016 11.2555 184.414 11.3716 184.872 11.4795L185.353 11.5859L185.359 11.5869L187.766 12.1016C189.443 12.4567 190.907 12.9324 192.147 13.5371C193.379 14.1374 194.419 14.8591 195.244 15.7148C196.066 16.5573 196.678 17.5173 197.069 18.5898C197.465 19.6478 197.663 20.7893 197.674 22.0039V22.0166C197.663 24.104 197.139 25.9346 196.053 27.4551L195.846 27.7334C194.784 29.1006 193.332 30.1279 191.535 30.833L191.534 30.832C189.631 31.5825 187.384 31.9434 184.819 31.9434V30.9434C187.295 30.9434 189.41 30.5942 191.167 29.9014L191.269 29.8613C192.987 29.1696 194.309 28.174 195.238 26.874C196.184 25.5498 196.664 23.93 196.674 22.0127L196.663 21.6006C196.617 20.6481 196.44 19.7613 196.133 18.9404L196.13 18.9326C195.789 17.9994 195.255 17.1593 194.527 16.4131L194.523 16.4092C193.795 15.6535 192.858 14.995 191.71 14.4355C190.56 13.8752 189.177 13.4228 187.559 13.0801H187.557L185.15 12.5654L185.137 12.5615L184.657 12.4561L184.65 12.4551L184.644 12.4531C184.156 12.3385 183.721 12.2122 183.339 12.0752C182.834 11.8943 182.416 11.6945 182.088 11.4736L182.077 11.4658L182.065 11.458C181.841 11.2982 181.659 11.1256 181.516 10.9424L180.775 11.5254C180.772 11.5207 180.768 11.5155 180.765 11.5107L180.764 11.5098C180.756 11.4996 180.74 11.4807 180.724 11.458L180.713 11.4443L180.704 11.4307L180.635 11.3301L180.636 11.3291C180.63 11.3209 180.624 11.3131 180.618 11.3047L181.404 10.7812C181.393 10.7634 181.38 10.7466 181.369 10.7285L181.347 10.6904L181.327 10.6514C181.197 10.3756 181.14 10.0708 181.152 9.7373L181.151 9.7002C181.161 9.25866 181.295 8.86421 181.551 8.52051C181.807 8.17609 182.199 7.90772 182.723 7.71387L182.752 7.70312L182.782 7.69336C183.168 7.55428 183.628 7.46517 184.161 7.42871L184.107 6.48926C184.32 6.47503 184.539 6.46875 184.763 6.46875V7.41016C186.058 7.41025 187.033 7.67862 187.678 8.22461C187.712 8.25345 187.745 8.28442 187.778 8.31445L188.408 7.61426L188.416 7.62109L188.427 7.62988L188.438 7.63965L188.464 7.66602L188.46 7.66211L187.813 8.34668C188.369 8.87043 188.686 9.57059 188.767 10.4453H196.271C196.254 8.67923 195.837 7.12564 195.022 5.78223L194.848 5.50586L194.669 5.24121C193.752 3.94009 192.489 2.92046 190.88 2.18262C189.162 1.39504 187.123 1.00008 184.763 1C182.458 1 180.414 1.38705 178.633 2.16016L178.614 2.16895C176.838 2.9475 175.447 4.03334 174.442 5.42578L174.443 5.42676C173.45 6.80711 172.956 8.4196 172.964 10.2656V10.2744C172.954 12.5506 173.69 14.3419 175.164 15.6553L175.45 15.8965C176.866 17.043 178.735 17.8812 181.06 18.4111H181.562L181.568 18.5234L184.198 19.0918H184.202C185.291 19.3306 186.16 19.5892 186.805 19.8682C187.449 20.1372 187.917 20.4475 188.202 20.8018L188.224 20.8291L188.228 20.835C188.499 21.1657 188.642 21.5493 188.656 21.9844L188.657 22.0195L188.656 22.0547C188.639 22.5264 188.484 22.9498 188.188 23.3223C187.883 23.7047 187.439 24.002 186.858 24.2148C186.277 24.4279 185.558 24.5332 184.704 24.5332C183.813 24.5331 183.027 24.4115 182.347 24.168L182.334 24.1631L182.32 24.1582L182.092 24.0684L182.073 24.0615L182.056 24.0537C181.322 23.7344 180.752 23.2644 180.346 22.6455C179.947 22.0376 179.721 21.2919 179.667 20.4111H172.221C172.238 22.8267 172.761 24.8071 173.783 26.3564L173.787 26.3613C174.83 27.9149 176.289 29.067 178.168 29.8164L178.526 29.9521C180.338 30.6121 182.435 30.9434 184.819 30.9434V31.9434L184.328 31.9385C181.888 31.8926 179.706 31.5017 177.8 30.7451H177.798L177.418 30.5869C175.669 29.8209 174.248 28.7044 173.179 27.2363L172.955 26.916L172.951 26.9111C171.784 25.1441 171.23 22.9368 171.22 20.3555L171.216 19.4111H180.614L180.661 20.3018C180.702 21.0702 180.891 21.6539 181.182 22.0967C181.473 22.5403 181.885 22.8887 182.455 23.1367L182.684 23.2266C183.165 23.399 183.737 23.5046 184.41 23.5283L184.704 23.5332C185.483 23.5332 186.078 23.4356 186.515 23.2754C186.913 23.1292 187.172 22.9542 187.339 22.7764L187.405 22.7002C187.567 22.4965 187.648 22.2783 187.657 22.0176C187.652 21.8466 187.611 21.7046 187.532 21.5762L187.441 21.4512L187.432 21.4404L187.424 21.4297C187.286 21.2585 186.988 21.028 186.418 20.79L186.407 20.7861C185.846 20.5433 185.047 20.3016 183.987 20.0693L181.07 19.4395C178.367 18.8534 176.156 17.8581 174.504 16.4062L174.5 16.4023C172.778 14.8689 171.953 12.7863 171.964 10.2705C171.955 8.23199 172.504 6.40901 173.631 4.84277C174.753 3.28701 176.294 2.09417 178.213 1.25293L178.214 1.25195C180.147 0.409056 182.337 0 184.763 0L185.222 0.00488281ZM79.4648 0.405273C81.584 0.454198 83.4902 0.871552 85.1621 1.68262C86.9498 2.55002 88.3594 3.81175 89.3643 5.46094C90.377 7.12335 90.8622 9.08545 90.8623 11.3047C90.8623 13.5451 90.362 15.5037 89.3076 17.1279L89.3066 17.127C88.5165 18.3554 87.482 19.348 86.2178 20.1064L92.4795 31.5996H81.6816L76.5322 21.9229H75.2832V31.5996H65.4395V0.400391H79.0391L79.4648 0.405273ZM102.336 7.69531H115.51V1.40039H94.4922V30.5996H115.453V24.3047H102.336V19.1484H114.422V12.8516H102.336V7.69531ZM138.693 0.400391V31.5996H128.85V0.400391H138.693ZM159.119 13.9629V0.400391H168.963V31.5996H160.884L151.551 18.0342V31.5996H141.707V0.400391H149.905L159.119 13.9629ZM209.786 0.400391V31.5996H199.942V0.400391H209.786ZM293.179 7.69531H302V1.40039H276.63V7.69531H285.45V30.5996H293.179V7.69531ZM200.942 30.5996H208.786V1.40039H200.942V30.5996ZM142.707 30.5996H150.551V14.8164L161.41 30.5996H167.963V1.40039H160.119V17.2148L149.375 1.40039H142.707V30.5996ZM129.85 30.5996H137.693V1.40039H129.85V30.5996ZM66.4395 30.5996H74.2832V20.9229H77.1338L77.415 21.4531L82.2822 30.5996H90.7959L84.8799 19.7422L85.7031 19.249C86.8395 18.5673 87.7611 17.6817 88.4658 16.5859L88.502 16.5293C89.4062 15.1109 89.8605 13.3727 89.8613 11.3105L88.9219 11.3174L88.9209 11.2803C88.9207 11.1692 88.9191 11.0581 88.916 10.9473L89.8574 10.9199C89.8148 9.38671 89.515 8.02292 88.9609 6.82715L88.1084 7.22266C88.0722 7.14451 88.0345 7.06744 87.9961 6.99121L87.8428 6.70215L88.668 6.25293C88.6169 6.16158 88.5651 6.07064 88.5107 5.98145C87.61 4.50295 86.3482 3.37032 84.7256 2.58301C83.1029 1.79581 81.2081 1.40044 79.0391 1.40039H66.4395V30.5996ZM52.4443 16C52.4443 14.3214 52.2198 12.9654 51.8066 11.9033L51.8037 11.8955C51.4514 10.9638 50.9669 10.2758 50.3682 9.78809L50.1055 9.59082L50.0957 9.58496C49.475 9.14934 48.7017 8.88284 47.7383 8.82324L47.3145 8.81055C46.1513 8.81059 45.2354 9.08642 44.5146 9.58691L44.5137 9.58789C43.7994 10.0816 43.2216 10.8315 42.8086 11.9014C42.404 12.9649 42.1836 14.3216 42.1836 16C42.1836 17.6756 42.4031 19.0365 42.8076 20.1104L42.9697 20.4932C43.3656 21.3524 43.886 21.9837 44.5137 22.4258C45.1444 22.856 45.9246 23.118 46.8896 23.1768L47.3145 23.1895C48.4809 23.1894 49.3917 22.9165 50.1016 22.4258C50.8273 21.9212 51.4028 21.1714 51.8047 20.1172L51.8057 20.1133C52.2199 19.0401 52.4443 17.6782 52.4443 16ZM12.3057 23.4404C12.3403 23.4593 12.376 23.476 12.4111 23.4941C12.3147 23.4444 12.2187 23.3935 12.126 23.3379L12.3057 23.4404ZM50.6357 23.2002L50.8047 23.0791C50.84 23.0523 50.8736 23.0228 50.9082 22.9951C50.8196 23.0661 50.7291 23.1353 50.6357 23.2002ZM42.5469 21.6836C42.5715 21.7223 42.5977 21.76 42.623 21.7979C42.5574 21.6998 42.4928 21.5991 42.4316 21.4951L42.5469 21.6836ZM52.6846 20.4521L52.7686 20.2217C52.7822 20.1829 52.7944 20.1428 52.8076 20.1035C52.7679 20.2218 52.7284 20.3387 52.6846 20.4521ZM79.2305 13.5654L79.5586 14.5098C79.0769 14.6772 78.5232 14.7819 77.8984 14.8281L77.9688 15.7666C77.9688 15.7666 77.9639 15.7672 77.96 15.7676C77.9489 15.7687 77.921 15.7714 77.8896 15.7734L77.8818 15.7744H77.874L77.543 15.791L77.542 15.79C77.5362 15.7902 77.5302 15.7918 77.5244 15.792L77.4854 14.8516C77.3751 14.855 77.2628 14.8564 77.1484 14.8564H74.2832V7.63867H77.1484V8.63867H75.2832V13.8564H77.1484C78.0121 13.8564 78.6986 13.7503 79.2305 13.5654ZM77.4932 14.792L77.8242 14.7754C77.8478 14.7738 77.8712 14.7713 77.8945 14.7695C77.7639 14.7792 77.6302 14.7876 77.4932 14.792ZM80.6748 11.3047C80.6747 10.6849 80.5577 10.2407 80.3779 9.92188L80.2979 9.79297L80.292 9.78516L80.2871 9.77637C80.0564 9.42745 79.7149 9.15259 79.2119 8.96582L79.2051 8.96289L79.1963 8.96094C78.7409 8.7829 78.1681 8.66992 77.46 8.64453L77.1484 8.63867V7.63867C78.0661 7.63868 78.8541 7.76333 79.5117 8.01172L79.5391 8.02051L79.5566 8.02734L79.5596 8.02832H79.5615L79.5635 8.0293C80.1563 8.24979 80.6281 8.58259 80.9785 9.02734L81.1221 9.22559L81.1426 9.25781L81.1621 9.29102C81.5037 9.81815 81.6747 10.4898 81.6748 11.3047C81.6747 12.0379 81.5353 12.6551 81.25 13.1533L81.2373 13.1748L81.2246 13.1953L81.1445 13.3203L81.1396 13.3281L81.1299 13.3428L81.1201 13.3564C80.7612 13.8799 80.2436 14.2633 79.5693 14.5059L79.5586 14.5098L79.2305 13.5654C79.7342 13.3842 80.0708 13.1193 80.2959 12.791L80.3018 12.7812L80.3818 12.6562C80.5585 12.3477 80.6748 11.9143 80.6748 11.3047ZM263.566 11.8516V0.400391H273.41V31.5996H263.566V20.1484H254.909V31.5996H245.065V0.400391H254.909V11.8516H263.566ZM89.9219 11.3047L89.917 10.9434C89.9168 10.9354 89.9162 10.9269 89.916 10.9189C89.9195 11.0462 89.9219 11.1751 89.9219 11.3047ZM181.527 10.8643C181.538 10.8789 181.55 10.8928 181.562 10.9072C181.525 10.8602 181.49 10.8124 181.459 10.7637L181.527 10.8643ZM187.773 8.38965C187.768 8.38434 187.763 8.37831 187.757 8.37305L187.75 8.36719C187.758 8.37454 187.766 8.38223 187.773 8.38965ZM188.481 7.68262C188.483 7.68417 188.484 7.68652 188.484 7.68652L188.47 7.67188L188.481 7.68262ZM26.9033 7.05664C26.8383 6.94014 26.7725 6.82418 26.7041 6.71094C26.6819 6.67424 26.6592 6.63797 26.6367 6.60156C26.7287 6.75026 26.8171 6.90224 26.9033 7.05664ZM88.8799 6.52344C88.9266 6.61543 88.9721 6.70869 89.0156 6.80273C88.9258 6.60878 88.8288 6.41862 88.7256 6.2334L88.8799 6.52344ZM26.6367 6.60156C26.6087 6.55605 26.5805 6.50977 26.5518 6.46484C26.4917 6.37083 26.4287 6.27916 26.3662 6.1875C26.4585 6.32305 26.5497 6.46089 26.6367 6.60156ZM26.333 6.1377C26.2442 6.00897 26.1541 5.88189 26.0605 5.75781C26.0519 5.74632 26.0419 5.73507 26.0332 5.72363C26.1359 5.85893 26.236 5.99682 26.333 6.1377ZM10.0059 1.75879C9.9789 1.76813 9.95268 1.77957 9.92578 1.78906C9.97769 1.77075 10.0299 1.7521 10.082 1.73438L10.0059 1.75879ZM53.4443 16C53.4443 17.5955 53.2489 18.969 52.8623 20.1211L53.7559 20.4219C53.7522 20.4329 53.749 20.4435 53.7412 20.4678C53.7346 20.4884 53.7238 20.5199 53.7119 20.5537L53.708 20.5654L53.623 20.7959C53.621 20.8013 53.6193 20.8071 53.6172 20.8125L52.7354 20.4805C52.3211 21.564 51.7246 22.4175 50.9453 23.041L51.5332 23.7764C51.5218 23.7855 51.5143 23.7918 51.4902 23.8115C51.4707 23.8275 51.4414 23.8508 51.4082 23.876L51.3984 23.8828L51.3896 23.8896L51.2217 24.0117L51.2207 24.0107C51.216 24.0141 51.2118 24.0182 51.207 24.0215L50.6621 23.2529C50.5554 23.3264 50.4455 23.3951 50.333 23.46L50.8057 24.2754L50.7949 24.2822L50.7871 24.2861C50.7621 24.3004 50.7397 24.3129 50.7295 24.3184C50.7157 24.3256 50.7168 24.3242 50.7168 24.3242L50.2607 23.5C49.4315 23.959 48.4493 24.1894 47.3145 24.1895C45.9898 24.1894 44.8674 23.8775 43.9502 23.252L43.9434 23.2471L43.9375 23.2432C43.4094 22.8712 42.9564 22.3987 42.5752 21.8291L41.792 22.3535L41.7031 22.2207L41.6982 22.2129L41.6934 22.2041L41.5781 22.0156C41.5757 22.0116 41.5727 22.007 41.5703 22.0029L42.3789 21.5176C42.2661 21.3254 42.1593 21.1242 42.0615 20.9121L42.0479 20.8828L41.8867 20.499L41.8789 20.4814L41.8721 20.4629C41.4132 19.2445 41.1836 17.7564 41.1836 16C41.1836 14.241 41.4137 12.7559 41.874 11.5459L41.876 11.542C42.3471 10.3213 43.0356 9.39387 43.9443 8.76562L44.0029 8.72559L44.0117 8.7207C44.9174 8.11355 46.0192 7.81059 47.3145 7.81055C48.6414 7.81059 49.7611 8.12794 50.6699 8.76562L50.6748 8.76855L50.6787 8.77148C51.5925 9.39925 52.2788 10.3234 52.7393 11.541L52.7461 11.5605C53.2122 12.7681 53.4443 14.2487 53.4443 16ZM264.566 12.8516H253.909V1.40039H246.065V30.5996H253.909V19.1484H264.566V30.5996H272.41V1.40039H264.566V12.8516ZM103.336 11.8516H115.422V20.1484H103.336V23.3047H116.453V31.5996H93.4922V0.400391H116.51V8.69531H103.336V11.8516ZM294.179 31.5996H284.45V8.69531H275.63V0.400391H303V8.69531H294.179V31.5996Z" fill="url(#paint0_linear_0_96)"/>
</g>
</g>
<defs>
<linearGradient id="paint0_linear_0_96" x1="-0.682799" y1="15.5438" x2="302.298" y2="15.5438" gradientUnits="userSpaceOnUse">
<stop stop-color="#E6E6E6" stop-opacity="0.5"/>
<stop offset="1" stop-color="#E6E6E6" stop-opacity="0"/>
</linearGradient>
</defs>
</svg>
