<svg preserveAspectRatio="none" overflow="visible" style="display: block;" width="16" height="14" viewBox="0 0 16 14" fill="none" xmlns="http://www.w3.org/2000/svg">
<g id="Frame 1321319393" opacity="0.8">
<rect width="16" height="14" rx="3" fill="#474747"/>
<g id="Union">
<path d="M5.7141 7.92724L6.9167 4.04964H8.13573L6.15079 10H5.27673L3.3 4.04964H4.51081L5.7141 7.92724Z" fill="#E6E6E6"/>
<path d="M10.4828 4C11.5424 4 12.2999 4.65986 12.3 5.72934C12.3 6.30586 12.0727 6.61525 11.6607 7.09147L9.98652 9.0221H12.3V10H8.65797V9.0221L10.8955 6.43999C11.1141 6.18097 11.2062 5.99692 11.2062 5.72118C11.2062 5.27831 10.9453 4.97722 10.4828 4.97722C10.1212 4.97733 9.75106 5.16177 9.75106 5.73818H8.65797C8.65797 4.65198 9.45681 4.00014 10.4828 4Z" fill="#E6E6E6"/>
</g>
</g>
</svg>
